# xmcd
#
# Track frame offsets:
#	150
#	16750
#	35442
#	51443
#	71328
#	85005
#	97959
#	121665
#	136422
#	151870
# Disc length: 2255 seconds
# Revision: 1
# Processed by: cddbd v1.5.1PL0 Copyright (c) Steve Scherf et al.
#
# Submitted via: libkcddb 0.10
#
DISCID=6f08cd0a
DTITLE=gretchen wilson - i'm here for the party
DYEAR=1900
DGENRE=
TTITLE0=im here for the party
TTITLE1=
TTITLE2=
TTITLE3=
TTITLE4=
TTITLE5=
TTITLE6=
TTITLE7=
TTITLE8=
TTITLE9=
EXTD=
EXTT0=
EXTT1=
EXTT2=
EXTT3=
EXTT4=
EXTT5=
EXTT6=
EXTT7=
EXTT8=
EXTT9=
PLAYORDER=
